<svg xmlns="http://www.w3.org/2000/svg" width="820" height="400" viewBox="0 0 820 400" role="img" aria-label="duskbox OKLCH palette diagram">
  <rect width="820" height="400" rx="14" fill="#23242e"/>
  <text x="32" y="40" font-family="ui-monospace, SFMono-Regular, Menlo, monospace" font-size="14" fill="#a0abc2">duskbox — OKLCH palette</text>
  <circle cx="200" cy="212" r="122" fill="none" stroke="#7c869c" stroke-opacity="0.22"/><circle cx="313.1" cy="166.3" r="11" fill="#fb9795" stroke="#23242e" stroke-width="2"/><text x="337.2" y="160.6" font-family="ui-monospace, SFMono-Regular, Menlo, monospace" font-size="11" fill="#7c869c" text-anchor="start">red</text><circle cx="275.1" cy="115.9" r="11" fill="#f4a16d" stroke="#23242e" stroke-width="2"/><text x="291.1" y="99.4" font-family="ui-monospace, SFMono-Regular, Menlo, monospace" font-size="11" fill="#7c869c" text-anchor="start">orange</text><circle cx="210.6" cy="90.5" r="11" fill="#dbb155" stroke="#23242e" stroke-width="2"/><text x="212.9" y="68.6" font-family="ui-monospace, SFMono-Regular, Menlo, monospace" font-size="11" fill="#7c869c" text-anchor="middle">yellow</text><circle cx="100.1" cy="142.0" r="11" fill="#85cc87" stroke="#23242e" stroke-width="2"/><text x="78.8" y="131.1" font-family="ui-monospace, SFMono-Regular, Menlo, monospace" font-size="11" fill="#7c869c" text-anchor="end">green</text><circle cx="78.5" cy="222.6" r="11" fill="#44d0c1" stroke="#23242e" stroke-width="2"/><text x="52.6" y="228.9" font-family="ui-monospace, SFMono-Regular, Menlo, monospace" font-size="11" fill="#7c869c" text-anchor="end">teal</text><circle cx="106.5" cy="290.4" r="11" fill="#4ac9ec" stroke="#23242e" stroke-width="2"/><text x="86.6" y="311.1" font-family="ui-monospace, SFMono-Regular, Menlo, monospace" font-size="11" fill="#7c869c" text-anchor="end">cyan</text><circle cx="168.4" cy="329.8" r="11" fill="#86bafe" stroke="#23242e" stroke-width="2"/><text x="161.7" y="359.0" font-family="ui-monospace, SFMono-Regular, Menlo, monospace" font-size="11" fill="#7c869c" text-anchor="end">blue</text><circle cx="241.7" cy="326.6" r="11" fill="#b6aaff" stroke="#23242e" stroke-width="2"/><text x="250.6" y="355.1" font-family="ui-monospace, SFMono-Regular, Menlo, monospace" font-size="11" fill="#7c869c" text-anchor="start">purple</text><circle cx="310.6" cy="263.6" r="11" fill="#f78be2" stroke="#23242e" stroke-width="2"/><text x="334.1" y="278.5" font-family="ui-monospace, SFMono-Regular, Menlo, monospace" font-size="11" fill="#7c869c" text-anchor="start">magenta</text><text x="200" y="211" font-family="ui-monospace, SFMono-Regular, Menlo, monospace" font-size="12" fill="#a0abc2" text-anchor="middle">equiluminant</text><text x="200" y="228" font-family="ui-monospace, SFMono-Regular, Menlo, monospace" font-size="10" fill="#7c869c" text-anchor="middle">variety from hue</text>
  <text x="440" y="70" font-family="ui-monospace, SFMono-Regular, Menlo, monospace" font-size="12" fill="#a0abc2">syntax → color</text><rect x="440" y="79" width="18" height="18" rx="4" fill="#fb9795"/><text x="468" y="93" font-family="ui-monospace, SFMono-Regular, Menlo, monospace" font-size="13" fill="#c6d1e9" font-weight="700">keyword</text><rect x="440" y="107" width="18" height="18" rx="4" fill="#dbb155"/><text x="468" y="121" font-family="ui-monospace, SFMono-Regular, Menlo, monospace" font-size="13" fill="#c6d1e9" font-weight="700">function</text><rect x="440" y="135" width="18" height="18" rx="4" fill="#f4a16d"/><text x="468" y="149" font-family="ui-monospace, SFMono-Regular, Menlo, monospace" font-size="13" fill="#c6d1e9" font-weight="700">type</text><rect x="440" y="163" width="18" height="18" rx="4" fill="#44d0c1"/><text x="468" y="177" font-family="ui-monospace, SFMono-Regular, Menlo, monospace" font-size="13" fill="#c6d1e9" >property</text><rect x="440" y="191" width="18" height="18" rx="4" fill="#85cc87"/><text x="468" y="205" font-family="ui-monospace, SFMono-Regular, Menlo, monospace" font-size="13" fill="#c6d1e9" >string</text><rect x="440" y="219" width="18" height="18" rx="4" fill="#4ac9ec"/><text x="468" y="233" font-family="ui-monospace, SFMono-Regular, Menlo, monospace" font-size="13" fill="#c6d1e9" >escape</text><rect x="440" y="247" width="18" height="18" rx="4" fill="#86bafe"/><text x="468" y="261" font-family="ui-monospace, SFMono-Regular, Menlo, monospace" font-size="13" fill="#c6d1e9" >number</text><rect x="440" y="275" width="18" height="18" rx="4" fill="#b6aaff"/><text x="468" y="289" font-family="ui-monospace, SFMono-Regular, Menlo, monospace" font-size="13" fill="#c6d1e9" >constant</text><rect x="440" y="303" width="18" height="18" rx="4" fill="#f78be2"/><text x="468" y="317" font-family="ui-monospace, SFMono-Regular, Menlo, monospace" font-size="13" fill="#c6d1e9" >this / import / constructor</text><rect x="440" y="331" width="18" height="18" rx="4" fill="#7c869c"/><text x="468" y="345" font-family="ui-monospace, SFMono-Regular, Menlo, monospace" font-size="13" fill="#c6d1e9" font-style="italic">comment</text><text x="440" y="376" font-family="ui-monospace, SFMono-Regular, Menlo, monospace" font-size="10" fill="#7c869c">signature variants recolor this row + the UI accent</text>
</svg>
