<svg xmlns="http://www.w3.org/2000/svg" width="640" height="220" viewBox="0 0 640 220" role="img" aria-label="duskbox storm">
  <rect width="640" height="220" rx="12" fill="#262e3e"/>
  <text x="24" y="36" font-family="ui-monospace, SFMono-Regular, Menlo, monospace" font-size="13" fill="#7f899f">duskbox-storm</text>
  <text x="24" y="72" font-family="ui-monospace, SFMono-Regular, Menlo, monospace" font-size="15" fill="#7f899f" font-style="italic">// fetch the account balance</text>
  <text x="24" y="98" font-family="ui-monospace, SFMono-Regular, Menlo, monospace" font-size="15" fill="#ac8efe" font-weight="700">export </text><text x="87" y="98" font-family="ui-monospace, SFMono-Regular, Menlo, monospace" font-size="15" fill="#b19ee3" font-style="italic">async </text><text x="141" y="98" font-family="ui-monospace, SFMono-Regular, Menlo, monospace" font-size="15" fill="#fe736a" font-weight="700">function </text><text x="222" y="98" font-family="ui-monospace, SFMono-Regular, Menlo, monospace" font-size="15" fill="#e7c454" >load</text><text x="258" y="98" font-family="ui-monospace, SFMono-Regular, Menlo, monospace" font-size="15" fill="#9da8be" >(id) {</text>
  <text x="24" y="124" font-family="ui-monospace, SFMono-Regular, Menlo, monospace" font-size="15" fill="#fe736a" font-weight="700">  return </text><text x="105" y="124" font-family="ui-monospace, SFMono-Regular, Menlo, monospace" font-size="15" fill="#e7c454" >fetch</text><text x="150" y="124" font-family="ui-monospace, SFMono-Regular, Menlo, monospace" font-size="15" fill="#9da8be" >(</text><text x="159" y="124" font-family="ui-monospace, SFMono-Regular, Menlo, monospace" font-size="15" fill="#44d6f1" >"/api"</text><text x="213" y="124" font-family="ui-monospace, SFMono-Regular, Menlo, monospace" font-size="15" fill="#9da8be" >) </text><text x="231" y="124" font-family="ui-monospace, SFMono-Regular, Menlo, monospace" font-size="15" fill="#79b3f7" >* </text><text x="249" y="124" font-family="ui-monospace, SFMono-Regular, Menlo, monospace" font-size="15" fill="#79b3f7" >100</text>
  <rect x="24" y="150" width="28" height="28" rx="6" fill="#fe736a"/><rect x="60" y="150" width="28" height="28" rx="6" fill="#f68c36"/><rect x="96" y="150" width="28" height="28" rx="6" fill="#e7c454"/><rect x="132" y="150" width="28" height="28" rx="6" fill="#89cc7b"/><rect x="168" y="150" width="28" height="28" rx="6" fill="#45d0c0"/><rect x="204" y="150" width="28" height="28" rx="6" fill="#44d6f1"/><rect x="240" y="150" width="28" height="28" rx="6" fill="#79b3f7"/><rect x="276" y="150" width="28" height="28" rx="6" fill="#b19ee3"/><rect x="312" y="150" width="28" height="28" rx="6" fill="#ee94db"/>
</svg>
